<?xml version="1.0" encoding="UTF-8" standalone="no"?>
<!-- Created with Inkscape (http://www.inkscape.org/) -->

<svg
   xmlns:svg="http://www.w3.org/2000/svg"
   xmlns="http://www.w3.org/2000/svg"
   version="1.1"
   width="540"
   height="552"
   id="svg2998">
  <defs
     id="defs3002" />
  <path
     d="m 205.65622,465.93028 c -4.26679,-4.02421 -9.78281,-8.84499 -12.25781,-10.71283 -2.475,-1.86785 -5.85,-4.77868 -7.5,-6.46851 -1.65,-1.68984 -4.35017,-4.18964 -6.00039,-5.55511 -1.65021,-1.36547 -4.03752,-3.83268 -5.30514,-5.48268 -1.26762,-1.65 -5.35704,-6.15 -9.08761,-10 -14.64097,-15.10971 -35.10686,-38.43451 -35.10686,-40.011 0,-0.64478 -6.5995,-8.76965 -10.88947,-13.40638 -1.31421,-1.42044 -3.56421,-4.16767 -5,-6.10495 -1.43579,-1.93728 -5.13735,-6.66228 -8.22569,-10.5 l -5.61516,-6.97767 -0.756452,-13.5 c -0.41604,-7.425 -0.8712,-24.525 -1.01147,-38 -0.26236,-25.20511 -0.7771,-36.16189 -2.51338,-53.5 -1.43677,-14.34725 -1.84269,-22.79224 -2.47544,-51.5 -0.30912,-14.025 -1.05552,-27.7902 -1.65866,-30.58933 -0.77065,-3.5765 -0.78409,-5.67331 -0.0452,-7.05388 0.65248,-1.21918 0.70426,-2.51323 0.13648,-3.41067 -0.5032,-0.79537 -0.9218,-1.09279 -0.93022,-0.66094 -0.008,0.43185 -0.89856,0.31249 -1.97808,-0.26525 -3.82022,-2.04452 -0.83984,-3.66416 12.745412,-6.92627 15.36707,-3.68996 34.72641,-8.86942 49.71735,-13.30155 5.5,-1.62609 11.8,-3.30577 14,-3.73262 3.73041,-0.72379 18.33367,-4.27437 51.86983,-12.61145 7.62842,-1.89641 14.86592,-3.44803 16.08335,-3.44803 1.21742,0 2.52652,-0.31302 2.90911,-0.69561 0.38258,-0.38259 1.24508,-0.78514 1.91666,-0.89457 0.67158,-0.10942 6.39606,-1.33423 12.72106,-2.72179 6.325,-1.38756 13.3,-2.83086 15.5,-3.20733 2.2,-0.37647 5.125,-0.90434 6.5,-1.17305 2.84744,-0.55645 3.39826,-0.63792 15,-2.21858 7.79999,-1.0627 20.89429,-3.305034 27,-4.623614 6.84288,-1.47779 26.01725,-3.67282 27.41109,-3.13795 0.8739,0.33535 1.60002,1.41134 1.6136,2.39111 0.0297,2.14263 7.67615,10.271584 22.36986,23.781384 5.98198,5.5 11.37788,10.46754 11.99089,11.03898 0.61301,0.57144 3.16894,2.59644 5.67984,4.49999 10.39716,7.88227 49.66534,45.70096 56.94522,54.84323 7.26164,9.11936 8.20337,10.11779 9.54321,10.11779 2.23672,0 3.54014,3.63599 4.05112,11.30096 0.46042,6.90636 1.82858,15.97028 5.01129,33.19904 0.86472,4.68096 1.50824,14.43063 1.55109,23.5 0.0675,14.29155 -0.15757,22.04496 -1.6549,57 -0.29449,6.875 -0.76657,19.475 -1.04906,28 -0.28248,8.525 -0.75451,20 -1.04893,25.5 -0.29443,5.5 -0.73416,14.275 -0.97718,19.5 -0.24302,5.225 -0.7783,13.98303 -1.1895,19.4623 l -0.74764,9.96229 -3,0.72084 c -19.49174,4.68342 -21.70467,5.07786 -35.95081,6.40785 -3.82295,0.35691 -7.99167,1.04465 -9.26383,1.52833 -2.12982,0.80975 -6.08353,1.48339 -31.78536,5.41562 -4.95,0.75732 -10.125,1.62823 -11.5,1.93536 -1.375,0.30712 -5.875,0.99623 -10,1.53135 -4.125,0.53512 -9.075,1.4866 -11,2.1144 -1.925,0.62781 -5.525,1.49019 -8,1.9164 -2.475,0.42622 -6.975,1.24967 -10,1.8299 -3.025,0.58023 -8.875,1.60006 -13,2.26629 -8.92969,1.44224 -32.79096,7.33225 -38.65103,9.54077 -2.28307,0.86043 -5.65807,1.7086 -7.5,1.88483 -1.84193,0.17622 -7.17397,0.81304 -11.84897,1.41515 -4.675,0.60211 -10.075,1.28085 -12,1.5083 -1.925,0.22746 -5.5836,0.88634 -8.13022,1.46419 -2.54662,0.57784 -7.04662,1.11415 -10,1.19179 -2.95338,0.0777 -6.37876,0.7709 -7.61197,1.54055 -2.11681,1.32111 -2.67599,0.99022 -10,-5.91738 z m 33.24219,-3.73849 c 7.15268,-1.01017 24.167,-4.28218 36.5,-7.01929 2.475,-0.54929 5.4,-1.17617 6.5,-1.39309 1.1,-0.21691 6.275,-1.51264 11.5,-2.8794 5.225,-1.36676 13.325,-3.01965 18,-3.67309 4.675,-0.65344 9.85,-1.58311 11.5,-2.06593 3.38752,-0.99126 7.4133,-1.8101 12.38873,-2.51987 1.8638,-0.26587 3.74149,-0.70143 4.17265,-0.96791 0.80294,-0.49624 8.68569,-2.11101 14.93862,-3.06016 8.40471,-1.27576 27.54414,-4.62337 28,-4.89737 0.275,-0.1653 3.425,-0.60767 7,-0.98306 3.575,-0.37539 10.325,-1.51949 15,-2.54245 4.675,-1.02295 11.65,-2.05834 15.5,-2.30086 3.85,-0.24253 11.83786,-1.70591 17.7508,-3.25195 l 10.7508,-2.811 -0.15699,-4.15038 c -0.0863,-2.28271 0.21552,-4.75311 0.6708,-5.48977 0.9654,-1.56204 1.24546,-4.51634 1.467,-15.47506 0.089,-4.4 0.59376,-14.075 1.12178,-21.5 0.52802,-7.425 1.14723,-19.35 1.37601,-26.5 0.22878,-7.15 0.75958,-21.55 1.17954,-32 1.18,-29.36233 1.00507,-65.21515 -0.34886,-71.5 -3.21203,-14.91007 -4.31088,-22.12484 -4.31088,-28.30423 0,-5.0851 -0.37141,-6.90106 -1.5,-7.33414 -0.825,-0.31659 -1.5,-0.96833 -1.5,-1.44833 0,-3.87302 -30.83635,-37.14475 -50.92514,-54.94709 -4.63383,-4.10642 -9.16295,-8.14121 -10.06471,-8.96621 -0.90177,-0.825 -3.63545,-3.06967 -6.07486,-4.98816 -5.26256,-4.13877 -14.54962,-12.73544 -28.86941,-26.7233 -8.03722,-7.85092 -10.75571,-9.96091 -11.75984,-9.12756 -0.71832,0.59616 -1.30604,1.68799 -1.30604,2.42629 0,0.73831 -0.9273,1.83865 -2.06066,2.44521 -2.0099,1.07566 -2.02222,1.02848 -0.5,-1.91516 1.8768,-3.62934 1.99144,-5.80705 0.33477,-6.359274 -0.67424,-0.22475 -4.69365,0.146614 -8.93201,0.825254 -4.23837,0.67864 -9.84296,1.52368 -12.45466,1.87787 -2.6117,0.35419 -5.11213,0.86869 -5.55652,1.14334 -0.44439,0.27465 -2.95064,0.7309 -5.56945,1.0139 -2.61881,0.283 -5.39283,0.72193 -6.16448,0.9754 -3.07829,1.01116 -28.41583,4.32718 -29.22806,3.82519 -0.47791,-0.29536 -0.86893,-0.0339 -0.86893,0.58101 0,0.61492 -0.40012,0.87075 -0.88915,0.56851 -0.98024,-0.60582 -4.79698,0.13636 -19.32108,3.75704 -5.34063,1.33136 -9.91131,2.21957 -10.15707,1.97381 -0.24576,-0.24576 -1.72616,0.20849 -3.28977,1.00943 -3.35693,1.71955 -15.95587,5.20072 -22.34293,6.1735 -2.475,0.37695 -6.075,1.06725 -8,1.534 -1.925,0.46675 -8,1.81077 -13.5,2.98672 -10.35137,2.21321 -21.0256,5.57177 -23.31429,7.33566 -0.73143,0.56371 -1.07414,1.96973 -0.77277,3.17045 0.37953,1.51219 0.0797,2.15754 -1.0023,2.15754 -1.13326,0 -1.38247,-0.64278 -0.93714,-2.41713 0.38851,-1.54791 0.23265,-2.18596 -0.43342,-1.77431 -0.57204,0.35354 -1.04008,1.37725 -1.04008,2.27492 0,1.44857 -0.14382,1.43543 -1.27887,-0.11685 -1.20902,-1.65343 -1.9327,-1.60317 -13.25,0.92017 -6.58412,1.46802 -12.46253,3.06514 -13.06314,3.54915 -0.6006,0.48402 -1.30508,0.66695 -1.56551,0.40653 -0.26042,-0.26043 -3.59402,0.44436 -7.40799,1.56619 -7.7509,2.27982 -8.47913,2.46337 -16.93449,4.2683 -5.03981,1.07583 -5.94445,1.58802 -5.65288,3.2006 0.85724,4.74114 6.66081,10.97155 17.65288,18.95122 4.4,3.19417 9.83607,7.4269 12.08015,9.40606 2.24409,1.97916 6.51079,5.62348 9.48156,8.09848 2.97078,2.475 7.43471,6.37944 9.91985,8.67654 2.48514,2.29709 6.84157,6.12209 9.68095,8.5 12.79512,10.71555 22.33749,19.2637 22.33749,20.01014 0,0.44733 0.59896,0.81332 1.33102,0.81332 0.73206,0 1.89974,1.0125 2.59484,2.25 0.6951,1.2375 3.26537,3.825 5.7117,5.75 2.44633,1.925 5.20366,4.2875 6.1274,5.25 2.71744,2.83148 4.25807,2.19957 3.65711,-1.5 l -0.52792,-3.25 1.50465,3.25 c 0.82756,1.7875 1.96482,3.25 2.52725,3.25 0.56242,0 1.68644,1.28374 2.49781,2.85276 l 1.47521,2.85275 6.5484,-1.23058 c 3.60161,-0.67681 7.78682,-1.68938 9.30046,-2.25014 1.51364,-0.56076 5.45207,-1.79256 8.75207,-2.73734 3.3,-0.94477 8.66182,-2.56594 11.91516,-3.60261 3.25333,-1.03666 6.50011,-1.88484 7.21505,-1.88484 0.71494,0 3.39503,-0.71132 5.95574,-1.5807 4.45619,-1.51292 5.92982,-1.90586 11.31875,-3.01817 1.32259,-0.27299 3.12259,-0.86741 4,-1.32092 0.87742,-0.45351 3.8453,-1.18064 6.5953,-1.61583 2.75,-0.43519 5.45,-0.91475 6,-1.0657 0.55,-0.15094 3.925,-1.00594 7.5,-1.9 3.575,-0.89406 9.2,-2.31037 12.5,-3.14734 3.3,-0.83697 10.05,-2.15751 15,-2.93453 4.95,-0.77702 12.15,-2.08395 16,-2.90429 8.62331,-1.8374 10.49231,-2.17019 22.92199,-4.08143 5.45709,-0.8391 10.18209,-1.68347 10.5,-1.87637 0.3179,-0.1929 3.50301,-0.6555 7.07801,-1.02799 3.575,-0.37249 10.325,-1.28258 15,-2.02241 4.675,-0.73982 9.175,-1.37598 10,-1.41368 8.91594,-0.40743 17.62623,-1.542 18.14981,-2.36413 0.95624,-1.50147 8.27484,1.66856 8.69397,3.76576 0.57866,2.89542 -0.96909,3.3848 -11.34378,3.58677 -5.5,0.10707 -15.625,1.00709 -22.5,2.00004 -6.875,0.99295 -19.025,2.74141 -27,3.88545 -7.975,1.14405 -19.225,2.92685 -25,3.96178 -5.775,1.03494 -14.775,2.62341 -20,3.52994 -16.36384,2.83911 -90.76428,22.06617 -101,26.10111 -1.925,0.75883 -5.1495,1.66181 -7.16555,2.00662 -2.85681,0.4886 -3.83069,1.21259 -4.41404,3.28147 -0.41166,1.46 -0.65888,3.03942 -0.54936,3.50981 0.10952,0.47039 -0.31692,1.47705 -0.94763,2.23701 -0.63072,0.75997 -0.89055,2.40258 -0.5774,3.65024 0.31314,1.24767 0.63693,10.14101 0.71953,19.76299 0.0826,9.62197 0.5189,20.1945 0.96955,23.4945 0.45065,3.3 1.07362,13.65 1.38438,23 0.31076,9.35 0.78535,21.95 1.05464,28 0.26928,6.05 0.73392,18.14851 1.03251,26.88557 0.2986,8.73706 0.70098,16.16206 0.89419,16.5 0.19321,0.33794 0.66088,6.91443 1.03928,14.61443 0.3784,7.7 1.13335,17.15 1.67766,21 0.54432,3.85 0.92189,10.825 0.83905,15.5 -0.0828,4.675 -0.10702,8.87915 -0.0537,9.34255 0.10228,0.8892 5.40952,0.50053 18.59691,-1.36191 l -2e-5,0 z m -25.38158,-6.23064 c 0.0651,-2.8875 0.10859,-5.475 0.0966,-5.75 -0.0408,-0.93234 -1.18855,-16.46478 -1.69963,-23 -1.34363,-17.18132 -2.50161,-40.62986 -2.51858,-51 -0.0103,-6.325 -0.20771,-13.3 -0.43859,-15.5 -0.23088,-2.2 -0.70034,-13.225 -1.04323,-24.5 -0.3429,-11.275 -1.04192,-25.675 -1.55338,-32 -0.51146,-6.325 -0.93705,-17.41436 -0.94575,-24.64301 -0.0132,-10.95932 0.24174,-13.24185 1.53441,-13.73789 1.33155,-0.51097 1.26101,-0.90532 -0.5,-2.79555 -1.12766,-1.21037 -2.05027,-2.56582 -2.05027,-3.01211 0,-0.44629 -0.675,-0.81144 -1.5,-0.81144 -1.96276,0 -1.89433,-0.90228 0.25,-3.29626 1.69413,-1.89137 1.56194,-2.11735 -4.14104,-7.07874 -3.24007,-2.81875 -9.99459,-8.95 -15.01004,-13.625 -5.01546,-4.675 -16.08949,-14.51119 -24.60896,-21.8582 -8.51948,-7.34702 -18.14205,-15.67202 -21.38349,-18.5 -3.24144,-2.82799 -6.61088,-5.5615 -7.48763,-6.07447 -0.87675,-0.51297 -2.27466,-1.69716 -3.10647,-2.63154 -3.96344,-4.45217 -26.86925,-21.64228 -27.949072,-20.97491 -0.89355,0.55224 -1.05368,7.18778 -0.64284,26.63728 0.54169,25.64441 0.8765,31.54951 4.048392,71.40184 0.89739,11.275 1.7762,30.175 1.95293,42 0.17672,11.825 0.67079,26.34374 1.09794,32.26386 0.67456,9.34905 1.08999,11.10198 3.16058,13.33619 1.31117,1.41477 4.24974,5.12104 6.53016,8.23613 2.28042,3.1151 6.43916,8.36382 9.24164,11.66382 2.80249,3.3 7.3183,8.925 10.03515,12.5 7.98605,10.50855 21.21886,25.74493 31.98256,36.82499 5.51661,5.67874 10.34137,10.87925 10.7217,11.55669 1.30776,2.32936 30.05951,28.11833 31.36293,28.13107 0.71742,0.007 1.63616,0.34452 2.04165,0.75 1.70232,1.70232 2.41073,0.43488 2.52233,-4.51275 z"
     id="path3082"
     style="fill:#000000" />
</svg>
